<?xml version="1.0" encoding="iso-8859-1"?>
<!-- Uploaded to: SVG Repo, www.svgrepo.com, Generator: SVG Repo Mixer Tools -->
<svg version="1.1" id="Layer_1" xmlns="http://www.w3.org/2000/svg" xmlns:xlink="http://www.w3.org/1999/xlink" 
	 viewBox="0 0 512 512" xml:space="preserve">
<circle style="fill:#0575A5;" cx="256" cy="256" r="256"/>
<path style="fill:#025E90;" d="M508.813,296.315L380.227,167.747c-1.646-1.644-3.763-2.452-5.921-2.452H137.69
	c-2.156,0-4.278,0.806-5.921,2.452c-1.651,1.651-2.452,3.771-2.452,5.926v151.222c0,2.12,0.801,4.278,2.452,5.921
	c1.644,1.651,3.766,2.45,5.921,2.45h-35.697c-0.364,0-0.727,0.148-0.988,0.407c-0.292,0.289-0.435,0.655-0.435,1.019v3.515h0.036
	l2.268,2.266l170.844,170.844C393.344,503.132,490.376,412.831,508.813,296.315z"/>
<path style="fill:#34495E;" d="M382.689,324.882c0,2.143-0.817,4.298-2.447,5.921c-1.644,1.664-3.786,2.465-5.937,2.465H137.69
	c-2.143,0-4.291-0.801-5.939-2.465c-1.626-1.623-2.447-3.779-2.447-5.921V173.676c0-2.156,0.822-4.298,2.447-5.934
	c1.649-1.623,3.796-2.445,5.939-2.445h236.616c2.153,0,4.296,0.822,5.937,2.445c1.631,1.636,2.447,3.779,2.447,5.934
	L382.689,324.882L382.689,324.882z"/>
<path style="fill:#283A4D;" d="M258.852,171.873c0,1.577-1.28,2.854-2.852,2.854c-1.58,0-2.844-1.28-2.844-2.854
	c0-1.577,1.265-2.842,2.844-2.842C257.574,169.032,258.852,170.296,258.852,171.873z"/>
<path style="fill:#5D6D7E;" d="M257.16,171.878c0,0.653-0.52,1.172-1.16,1.172c-0.643,0-1.16-0.52-1.16-1.172
	c0-0.632,0.517-1.144,1.16-1.144C256.64,170.732,257.16,171.246,257.16,171.878z"/>
<path style="fill:#E1EFFA;" d="M411.43,338.179c-4.518,5.212-11.203,8.525-18.645,8.525H119.209c-7.439,0-14.124-3.313-18.639-8.525
	H411.43z"/>
<path style="fill:#FFFFFF;" d="M411.423,338.196H100.572v-3.517c0-0.358,0.143-0.73,0.422-1.006
	c0.274-0.266,0.632-0.407,0.991-0.407H410.01c0.366,0,0.722,0.143,1.001,0.407c0.271,0.274,0.412,0.648,0.412,1.006V338.196z"/>
<path style="fill:#B8D1E6;" d="M284.867,334.106c0,0.412-0.161,0.85-0.494,1.175c-0.317,0.312-0.742,0.479-1.172,0.479h-54.4
	c-0.428,0-0.86-0.164-1.18-0.479c-0.323-0.325-0.492-0.763-0.492-1.175v-0.837h57.741v0.837H284.867z"/>
<rect x="142.492" y="178.458" style="fill:#FF8E31;" width="226.995" height="141.875"/>
<g>
	<path style="fill:#FFFFFF;" d="M244.165,265.987h-34.458c-1.198,0-2.342-0.379-3.305-1.096c-0.965-0.717-1.664-1.7-2.004-2.852
		l-11.144-36.744h-17.198v-6.659h18.025c1.198,0,2.34,0.374,3.305,1.096c0.968,0.712,1.667,1.7,2.01,2.844l11.139,36.746h32.804
		l6.874-22.651h-41.905l-2.017-6.659h45.42c1.746,0,3.407,0.835,4.452,2.24c1.047,1.408,1.362,3.246,0.858,4.923l-7.544,24.863
		c-0.343,1.155-1.039,2.135-1.989,2.852C246.51,265.608,245.368,265.987,244.165,265.987z M244.191,241.203h-34.516l1.377,4.531
		h31.764L244.191,241.203z M241.446,250.263l-1.372,4.534h-26.276l-1.37-4.534H241.446z M214.615,268.096
		c-3.341,0-6.039,2.701-6.039,6.044c0,3.333,2.701,6.039,6.039,6.039c3.336,0,6.044-2.708,6.044-6.039
		C220.659,270.794,217.953,268.096,214.615,268.096z M239.252,268.096c-3.336,0-6.039,2.701-6.039,6.044
		c0,3.333,2.703,6.036,6.039,6.036c3.343,0,6.042-2.706,6.042-6.036C245.297,270.794,242.596,268.096,239.252,268.096z"/>
	<rect x="264.269" y="218.65" style="fill:#FFFFFF;" width="71.66" height="15.386"/>
	<rect x="264.269" y="243.789" style="fill:#FFFFFF;" width="71.66" height="15.386"/>
</g>
<g>
	<circle style="fill:#34495E;" cx="274.432" cy="251.187" r="2.785"/>
	<circle style="fill:#34495E;" cx="284.698" cy="251.187" r="2.788"/>
	<circle style="fill:#34495E;" cx="294.963" cy="251.187" r="2.785"/>
	<path style="fill:#34495E;" d="M308.027,251.182c0,1.533-1.239,2.783-2.775,2.783c-1.546,0-2.788-1.249-2.788-2.783
		c0-1.539,1.242-2.78,2.788-2.78C306.788,248.402,308.027,249.644,308.027,251.182z"/>
	<path style="fill:#34495E;" d="M318.31,251.182c0,1.533-1.249,2.783-2.79,2.783c-1.531,0-2.788-1.249-2.788-2.783
		c0-1.539,1.257-2.78,2.788-2.78C317.061,248.402,318.31,249.644,318.31,251.182z"/>
	<circle style="fill:#34495E;" cx="325.811" cy="251.187" r="2.79"/>
</g>
<g>
	<rect x="271.206" y="272.026" style="fill:#FFFFFF;" width="6.648" height="0.932"/>
	
		<rect x="272.52" y="267.032" transform="matrix(-0.7077 -0.7065 0.7065 -0.7077 282.0728 651.6846)" style="fill:#FFFFFF;" width="6.646" height="0.922"/>
	
		<rect x="272.515" y="277.061" transform="matrix(-0.7075 0.7067 -0.7067 -0.7075 667.1238 278.941)" style="fill:#FFFFFF;" width="6.646" height="0.929"/>
	<rect x="322.355" y="272.026" style="fill:#FFFFFF;" width="6.648" height="0.932"/>
	
		<rect x="321.051" y="266.998" transform="matrix(0.7077 -0.7065 0.7065 0.7077 -94.1519 307.3496)" style="fill:#FFFFFF;" width="6.646" height="0.929"/>
	
		<rect x="321.042" y="277.021" transform="matrix(0.7075 0.7067 -0.7067 0.7075 290.977 -148.0676)" style="fill:#FFFFFF;" width="6.646" height="0.934"/>
</g>
<path style="fill:#0575A5;" d="M318.316,278.341c0,1.009-0.812,1.838-1.825,1.838h-32.763c-1.006,0-1.833-0.829-1.833-1.838v-11.707
	c0-1.006,0.827-1.825,1.833-1.825h32.763c1.014,0,1.825,0.819,1.825,1.825L318.316,278.341L318.316,278.341z"/>
<path style="fill:#479ABE;" d="M318.316,272.489v-5.857c0-1.006-0.812-1.825-1.825-1.825h-32.763c-1.006,0-1.833,0.819-1.833,1.825
	v5.857H318.316z"/>
<path style="fill:#FFFFFF;" d="M295.485,272.246c0.261-0.113,0.461-0.287,0.609-0.512c0.156-0.241,0.225-0.492,0.225-0.773
	c0-0.261-0.056-0.492-0.174-0.709c-0.128-0.205-0.284-0.364-0.466-0.492c-0.189-0.118-0.392-0.202-0.617-0.246
	c-0.238-0.044-0.584-0.054-1.052-0.054h-2.388v5.962h2.025c0.765-0.013,1.257-0.023,1.457-0.044c0.31-0.036,0.589-0.128,0.801-0.282
	c0.218-0.151,0.397-0.361,0.52-0.617c0.128-0.253,0.189-0.52,0.189-0.791c0-0.34-0.092-0.635-0.294-0.896
	C296.123,272.532,295.849,272.351,295.485,272.246z M292.831,270.449h0.689c0.563,0,0.911,0,1.024,0.02
	c0.205,0.028,0.353,0.095,0.458,0.205c0.105,0.123,0.156,0.269,0.156,0.448c0,0.197-0.064,0.353-0.187,0.474
	c-0.115,0.118-0.276,0.195-0.479,0.218c-0.115,0.01-0.41,0.018-0.876,0.018h-0.786V270.449z M295.201,274.14
	c-0.12,0.12-0.261,0.207-0.443,0.233c-0.113,0.021-0.384,0.044-0.817,0.044h-1.114v-1.595h0.963c0.556,0,0.911,0.028,1.073,0.084
	c0.161,0.054,0.289,0.151,0.379,0.271c0.084,0.125,0.128,0.276,0.128,0.451C295.373,273.846,295.314,274.015,295.201,274.14z
	 M301.174,269.458h1.201v3.126c0,0.719-0.028,1.221-0.097,1.516c-0.059,0.294-0.182,0.55-0.348,0.753
	c-0.182,0.205-0.41,0.374-0.712,0.484c-0.292,0.125-0.676,0.189-1.137,0.189c-0.584,0-1.009-0.077-1.3-0.205
	c-0.297-0.138-0.52-0.294-0.696-0.512c-0.169-0.202-0.284-0.435-0.335-0.663c-0.079-0.343-0.12-0.842-0.12-1.516v-3.172h1.203v3.231
	c0,0.504,0.013,0.842,0.044,0.998c0.054,0.238,0.169,0.43,0.366,0.584c0.202,0.148,0.463,0.218,0.801,0.218s0.596-0.056,0.771-0.207
	c0.177-0.138,0.282-0.305,0.307-0.509c0.046-0.202,0.059-0.54,0.059-1.011v-3.302H301.174z M308.6,269.458l-2.186,3.456v2.506
	h-1.206v-2.514l-2.186-3.448h1.421l1.4,2.358l1.37-2.358H308.6L308.6,269.458z"/>
<polygon style="fill:#34495E;" points="322.312,287.498 322.312,285.637 321.393,285.637 321.393,284.71 320.451,284.71 
	320.451,283.781 319.519,283.781 319.519,282.849 318.597,282.849 318.597,281.93 317.663,281.93 317.663,280.986 316.741,280.986 
	316.741,280.059 315.809,280.059 315.809,279.135 314.875,279.135 314.875,278.208 313.948,278.208 313.948,277.271 
	313.014,277.271 313.014,276.339 312.087,276.339 312.087,275.42 311.153,275.42 311.153,291.22 313.014,291.22 313.014,290.289 
	313.948,290.289 313.948,289.352 314.875,289.352 314.875,288.425 315.809,288.425 315.809,290.289 316.741,290.289 
	316.741,292.145 317.663,292.145 317.663,293.082 319.519,293.082 319.519,292.145 320.451,292.145 320.451,290.289 
	319.519,290.289 319.519,288.425 318.597,288.425 318.597,287.498 "/>
</svg>